HIERARCHY
ROOT Root
{
  OFFSET 0.0 0.0 0.0
  CHANNELS 6 Xposition Yposition Zposition Zrotation Yrotation Xrotation
  JOINT Hips
  {
    OFFSET 0.0 100.0 0.0
    CHANNELS 6 Xposition Yposition Zposition Zrotation Yrotation Xrotation
    JOINT Spine1
    {
      OFFSET -0.013727 5.003763 -0.053727
      CHANNELS 3 Zrotation Yrotation Xrotation
      JOINT Spine2
      {
        OFFSET -0.0 7.125301 -0.029825
        CHANNELS 3 Zrotation Yrotation Xrotation
        JOINT Chest
        {
          OFFSET -1e-06 7.550063 -0.815971
          CHANNELS 3 Zrotation Yrotation Xrotation
          JOINT Neck1
          {
            OFFSET -0.181677 26.311295 -0.553348
            CHANNELS 3 Zrotation Yrotation Xrotation
            JOINT Neck2
            {
              OFFSET -3e-06 7.709397 2.302585
              CHANNELS 3 Zrotation Yrotation Xrotation
              JOINT Head
              {
                OFFSET -5e-06 6.128916 1.953709
                CHANNELS 3 Zrotation Yrotation Xrotation
                JOINT HeadEnd
                {
                  OFFSET 0.003598 16.065403 -1.835379
                  CHANNELS 3 Zrotation Yrotation Xrotation
                }
                JOINT Jaw
                {
                  OFFSET 0.002637 0.475592 3.094941
                  CHANNELS 3 Zrotation Yrotation Xrotation
                }
                JOINT LeftEye
                {
                  OFFSET 3.206381 5.380205 7.586883
                  CHANNELS 3 Zrotation Yrotation Xrotation
                }
                JOINT RightEye
                {
                  OFFSET -3.22244 5.361869 7.558234
                  CHANNELS 3 Zrotation Yrotation Xrotation
                }
              }
            }
          }
          JOINT LeftShoulder
          {
            OFFSET 1.621652 23.237164 5.113413
            CHANNELS 3 Zrotation Yrotation Xrotation
            JOINT LeftArm
            {
              OFFSET 14.919846 2e-06 -5.502326
              CHANNELS 3 Zrotation Yrotation Xrotation
              JOINT LeftForeArm
              {
                OFFSET 28.739307 0.0 -0.002588
                CHANNELS 3 Zrotation Yrotation Xrotation
                JOINT LeftHand
                {
                  OFFSET 27.093981 -1e-06 0.002609
                  CHANNELS 3 Zrotation Yrotation Xrotation
                  JOINT LeftHandThumb1
                  {
                    OFFSET 2.276482 -1.392045 3.191413
                    CHANNELS 3 Zrotation Yrotation Xrotation
                    JOINT LeftHandThumb2
                    {
                      OFFSET 4.012836 -1.828127 1.641654
                      CHANNELS 3 Zrotation Yrotation Xrotation
                      JOINT LeftHandThumb3
                      {
                        OFFSET 2.798515 0.0 -3e-06
                        CHANNELS 3 Zrotation Yrotation Xrotation
                        JOINT LeftHandThumbEnd
                        {
                          OFFSET 3.180793 -4e-06 4e-06
                          CHANNELS 3 Zrotation Yrotation Xrotation
                        }
                      }
                    }
                  }
                  JOINT LeftHandIndex1
                  {
                    OFFSET 3.247555 -0.531998 2.296169
                    CHANNELS 3 Zrotation Yrotation Xrotation
                    JOINT LeftHandIndex2
                    {
                      OFFSET 6.364578 0.01206 0.1786
                      CHANNELS 3 Zrotation Yrotation Xrotation
                      JOINT LeftHandIndex3
                      {
                        OFFSET 3.662364 0.0 0.0
                        CHANNELS 3 Zrotation Yrotation Xrotation
                        JOINT LeftHandIndex4
                        {
                          OFFSET 2.329242 4e-06 4e-06
                          CHANNELS 3 Zrotation Yrotation Xrotation
                          JOINT LeftHandIndexEnd
                          {
                            OFFSET 2.759615 -0.180537 -0.113024
                            CHANNELS 3 Zrotation Yrotation Xrotation
                          }
                        }
                      }
                    }
                  }
                  JOINT LeftHandMiddle1
                  {
                    OFFSET 3.163495 0.240981 1.000332
                    CHANNELS 3 Zrotation Yrotation Xrotation
                    JOINT LeftHandMiddle2
                    {
                      OFFSET 6.19078 -0.259278 -1.002548
                      CHANNELS 3 Zrotation Yrotation Xrotation
                      JOINT LeftHandMiddle3
                      {
                        OFFSET 4.35652 -4e-06 -1e-06
                        CHANNELS 3 Zrotation Yrotation Xrotation
                        JOINT LeftHandMiddle4
                        {
                          OFFSET 2.996877 -8e-06 0.0
                          CHANNELS 3 Zrotation Yrotation Xrotation
                          JOINT LeftHandMiddleEnd
                          {
                            OFFSET 2.304287 -0.294569 -0.031741
                            CHANNELS 3 Zrotation Yrotation Xrotation
                          }
                        }
                      }
                    }
                  }
                  JOINT LeftHandRing1
                  {
                    OFFSET 2.882643 -0.053652 -0.322543
                    CHANNELS 3 Zrotation Yrotation Xrotation
                    JOINT LeftHandRing2
                    {
                      OFFSET 5.854541 -0.486202 -1.373841
                      CHANNELS 3 Zrotation Yrotation Xrotation
                      JOINT LeftHandRing3
                      {
                        OFFSET 4.350578 0.0 3e-06
                        CHANNELS 3 Zrotation Yrotation Xrotation
                        JOINT LeftHandRing4
                        {
                          OFFSET 2.651321 7e-06 2e-06
                          CHANNELS 3 Zrotation Yrotation Xrotation
                          JOINT LeftHandRingEnd
                          {
                            OFFSET 1.936105 0.077687 -7.1e-05
                            CHANNELS 3 Zrotation Yrotation Xrotation
                          }
                        }
                      }
                    }
                  }
                  JOINT LeftHandPinky1
                  {
                    OFFSET 2.8655 -0.310005 -1.600378
                    CHANNELS 3 Zrotation Yrotation Xrotation
                    JOINT LeftHandPinky2
                    {
                      OFFSET 5.087849 -1.331141 -1.77123
                      CHANNELS 3 Zrotation Yrotation Xrotation
                      JOINT LeftHandPinky3
                      {
                        OFFSET 3.070974 4e-06 0.0
                        CHANNELS 3 Zrotation Yrotation Xrotation
                        JOINT LeftHandPinky4
                        {
                          OFFSET 1.549672 0.0 1e-06
                          CHANNELS 3 Zrotation Yrotation Xrotation
                          JOINT LeftHandPinkyEnd
                          {
                            OFFSET 1.944893 -0.157802 0.057219
                            CHANNELS 3 Zrotation Yrotation Xrotation
                          }
                        }
                      }
                    }
                  }
                }
              }
            }
          }
          JOINT RightShoulder
          {
            OFFSET -1.380118 23.180309 5.214158
            CHANNELS 3 Zrotation Yrotation Xrotation
            JOINT RightArm
            {
              OFFSET -15.037196 1.2e-05 -5.545604
              CHANNELS 3 Zrotation Yrotation Xrotation
              JOINT RightForeArm
              {
                OFFSET -28.736639 2e-06 -0.002597
                CHANNELS 3 Zrotation Yrotation Xrotation
                JOINT RightHand
                {
                  OFFSET -27.133619 -0.0 0.002613
                  CHANNELS 3 Zrotation Yrotation Xrotation
                  JOINT RightHandThumb1
                  {
                    OFFSET -2.274032 -1.383988 3.163127
                    CHANNELS 3 Zrotation Yrotation Xrotation
                    JOINT RightHandThumb2
                    {
                      OFFSET -4.011429 -1.827466 1.640914
                      CHANNELS 3 Zrotation Yrotation Xrotation
                      JOINT RightHandThumb3
                      {
                        OFFSET -2.794935 -4e-06 -3e-06
                        CHANNELS 3 Zrotation Yrotation Xrotation
                        JOINT RightHandThumbEnd
                        {
                          OFFSET -3.183852 4e-06 1e-06
                          CHANNELS 3 Zrotation Yrotation Xrotation
                        }
                      }
                    }
                  }
                  JOINT RightHandIndex1
                  {
                    OFFSET -3.253266 -0.520057 2.282866
                    CHANNELS 3 Zrotation Yrotation Xrotation
                    JOINT RightHandIndex2
                    {
                      OFFSET -6.341917 0.012471 0.178266
                      CHANNELS 3 Zrotation Yrotation Xrotation
                      JOINT RightHandIndex3
                      {
                        OFFSET -3.654871 -8e-06 -0.0
                        CHANNELS 3 Zrotation Yrotation Xrotation
                        JOINT RightHandIndex4
                        {
                          OFFSET -2.327586 0.0 1e-06
                          CHANNELS 3 Zrotation Yrotation Xrotation
                          JOINT RightHandIndexEnd
                          {
                            OFFSET -2.76179 -0.180656 -0.113078
                            CHANNELS 3 Zrotation Yrotation Xrotation
                          }
                        }
                      }
                    }
                  }
                  JOINT RightHandMiddle1
                  {
                    OFFSET -3.168106 0.246593 1.00103
                    CHANNELS 3 Zrotation Yrotation Xrotation
                    JOINT RightHandMiddle2
                    {
                      OFFSET -6.180828 -0.258836 -1.000895
                      CHANNELS 3 Zrotation Yrotation Xrotation
                      JOINT RightHandMiddle3
                      {
                        OFFSET -4.348901 0.0 -0.0
                        CHANNELS 3 Zrotation Yrotation Xrotation
                        JOINT RightHandMiddle4
                        {
                          OFFSET -3.00024 -4e-06 -2e-06
                          CHANNELS 3 Zrotation Yrotation Xrotation
                          JOINT RightHandMiddleEnd
                          {
                            OFFSET -2.30252 -0.29437 -0.031706
                            CHANNELS 3 Zrotation Yrotation Xrotation
                          }
                        }
                      }
                    }
                  }
                  JOINT RightHandRing1
                  {
                    OFFSET -2.88569 -0.067952 -0.308858
                    CHANNELS 3 Zrotation Yrotation Xrotation
                    JOINT RightHandRing2
                    {
                      OFFSET -5.854198 -0.48613 -1.373731
                      CHANNELS 3 Zrotation Yrotation Xrotation
                      JOINT RightHandRing3
                      {
                        OFFSET -4.33881 -4e-06 -0.0
                        CHANNELS 3 Zrotation Yrotation Xrotation
                        JOINT RightHandRing4
                        {
                          OFFSET -2.654903 -4e-06 4e-06
                          CHANNELS 3 Zrotation Yrotation Xrotation
                          JOINT RightHandRingEnd
                          {
                            OFFSET -1.933568 0.077527 -5.2e-05
                            CHANNELS 3 Zrotation Yrotation Xrotation
                          }
                        }
                      }
                    }
                  }
                  JOINT RightHandPinky1
                  {
                    OFFSET -2.866425 -0.342796 -1.584145
                    CHANNELS 3 Zrotation Yrotation Xrotation
                    JOINT RightHandPinky2
                    {
                      OFFSET -5.091371 -1.332055 -1.772385
                      CHANNELS 3 Zrotation Yrotation Xrotation
                      JOINT RightHandPinky3
                      {
                        OFFSET -3.062664 -4e-06 1e-06
                        CHANNELS 3 Zrotation Yrotation Xrotation
                        JOINT RightHandPinky4
                        {
                          OFFSET -1.546529 4e-06 -2e-06
                          CHANNELS 3 Zrotation Yrotation Xrotation
                          JOINT RightHandPinkyEnd
                          {
                            OFFSET -1.945119 -0.157718 0.057211
                            CHANNELS 3 Zrotation Yrotation Xrotation
                          }
                        }
                      }
                    }
                  }
                }
              }
            }
          }
        }
      }
    }
    JOINT LeftLeg
    {
      OFFSET 10.043214 -8.434526 2.595655
      CHANNELS 3 Zrotation Yrotation Xrotation
      JOINT LeftShin
      {
        OFFSET -1e-06 -43.221752 -0.802913
        CHANNELS 3 Zrotation Yrotation Xrotation
        JOINT LeftFoot
        {
          OFFSET 1e-06 -42.155094 -3.481523
          CHANNELS 3 Zrotation Yrotation Xrotation
          JOINT LeftToeBase
          {
            OFFSET 0.0 -5.059472 13.231529
            CHANNELS 3 Zrotation Yrotation Xrotation
            JOINT LeftToeEnd
            {
              OFFSET -0.009607 -1.647619 6.513017
              CHANNELS 3 Zrotation Yrotation Xrotation
            }
          }
        }
      }
    }
    JOINT RightLeg
    {
      OFFSET -10.047278 -8.29526 2.620317
      CHANNELS 3 Zrotation Yrotation Xrotation
      JOINT RightShin
      {
        OFFSET 1e-06 -43.362206 -0.805556
        CHANNELS 3 Zrotation Yrotation Xrotation
        JOINT RightFoot
        {
          OFFSET 2e-06 -42.117393 -3.478398
          CHANNELS 3 Zrotation Yrotation Xrotation
          JOINT RightToeBase
          {
            OFFSET -0.0 -5.079609 13.284196
            CHANNELS 3 Zrotation Yrotation Xrotation
            JOINT RightToeEnd
            {
              OFFSET 0.009532 -1.634378 6.460591
              CHANNELS 3 Zrotation Yrotation Xrotation
            }
          }
        }
      }
    }
  }
}
MOTION
Frames: 4
Frame Time: 0.03333333333333333
0.0 0.0 0.0 0.0 -0.0 0.0 1.46806 95.99427 2.176159 1.914431 -0.089591 4.924407 -0.627538 0.387801 -0.366752 -0.63772 1.970648 -4.864766 -1.606351 -0.302762 11.110402 -2.166279 3.270891 -0.748408 -0.987468 0.099875 -3.693274 0.126186 -0.358657 -6.982181 7.7e-05 -2.2e-05 6e-06 0.043315 -0.084253 -0.037092 0.758527 -3.812443 -10.638651 -0.686043 3.651153 -10.674438 -23.626732 -2.117019 15.72536 -49.205658 -6.524331 6.856236 0.148491 -29.33079 0.082789 -3.933017 6.676895 -21.362249 -5.882111 9.861293 0.70259 -10.936878 -0.360575 7.156209 0.0 8.774831 -1e-06 -16.210876 18.439833 6.263173 -1.844034 2.498506 -2.507279 -10.163607 4.678948 4.621111 -20.976038 -3e-06 1e-06 -21.226303 2.451699 -3.594004 -0.0 -6e-06 -0.0 -1.362682 2.2408 -0.746324 -21.33493 0.58491 3.008324 -13.821223 -3e-06 1e-06 -23.88719 -0.249079 -0.839484 -60.823975 2.330931 -1.072742 -0.294025 1.679689 0.833256 -14.21822 0.093215 1.300581 -34.212078 -0.287565 0.96717 -20.033226 0.964537 1.212844 0.0 0.0 0.0 -3.440391 0.788234 0.501656 -15.928196 -3.167312 2.999709 -6.33883 -1e-06 0.0 -18.123459 3.648185 -4.905674 -5e-06 0.0 -2e-06 15.064792 8.933762 16.473944 57.273911 2.589341 15.340475 -0.741114 35.845352 -0.251121 6.135908 -1.040827 -12.937936 2.243542 -5.255037 -3.180157 14.282887 -0.826595 6.952498 -1e-06 -12.690603 -1e-06 16.213821 -17.975672 2.411452 1.665666 -1.955923 -2.878299 4.727798 -4.170588 4.993923 11.020524 0.0 -2e-06 12.109052 -3.735717 -2.866786 -0.0 0.0 -0.0 1.291986 -1.928549 -1.498089 14.800123 0.567466 3.865606 14.242569 -1.341738 -6.660659 19.631966 0.143924 -0.648247 49.450974 -0.386753 -6.495376 0.353029 -1.51115 -0.031939 20.222786 3.684307 2.316628 18.78727 3e-06 -4e-06 10.751625 -0.479868 1.397904 0.0 -0.0 1e-06 3.273806 0.305947 -0.580112 21.486809 11.830373 2.266132 8.162926 1e-06 -1e-06 18.39908 -3.798986 -4.940577 2e-06 1e-06 -1e-06 -3.734838 6.490029 -33.591511 0.242607 0.196831 23.137032 1.478307 6.226968 5.2848 1.646101 -1.822931 -2.571384 -0.0 -1e-06 2e-06 -10.59632 -13.131489 11.595073 -0.026387 0.910455 29.45923 8.749225 -7.622319 4.798972 -1.640326 0.891952 -21.062624 -0.0 0.0 -1e-06 
0.0 0.0 0.0 0.0 -0.0 0.0 2.339343 97.049034 6.097507 1.713148 0.131758 4.391367 -0.682781 0.216617 -0.145894 -0.566609 1.892363 -4.692285 -1.706035 -0.487561 10.808849 -1.667892 3.165634 -0.56159 -1.053057 0.14865 -3.688147 0.123228 -0.295267 -6.89506 7.7e-05 -2.3e-05 6e-06 0.040938 -0.014867 -0.044463 0.758595 -3.74092 -10.64215 -0.690734 3.716141 -10.677835 -22.858833 -2.335452 15.717847 -49.326027 -7.041891 6.323318 -0.364635 -30.017574 0.141119 -3.43365 6.360983 -21.24902 -5.882109 9.861292 0.702591 -10.936876 -0.360575 7.156209 -0.0 8.774831 -1e-06 -16.244141 18.211451 6.064327 -1.844033 2.498507 -2.507279 -10.163604 4.678948 4.62111 -20.976032 -3e-06 1e-06 -21.226295 2.451698 -3.594002 1e-06 -6e-06 -1e-06 -1.362682 2.240799 -0.746324 -21.334925 0.58491 3.008324 -13.82122 -2e-06 2e-06 -23.88718 -0.249078 -0.839484 -60.639301 2.21216 -1.262955 -0.294025 1.679688 0.833256 -14.218215 0.093215 1.300581 -34.212067 -0.287563 0.96717 -20.033222 0.964537 1.212843 0.0 -0.0 -0.0 -3.44039 0.788234 0.501656 -15.928192 -3.167311 2.999709 -6.338828 -0.0 1e-06 -18.123453 3.648186 -4.905674 -4e-06 0.0 -2e-06 14.447445 8.80917 16.419895 58.040939 2.09354 15.16318 -0.442202 36.100128 -0.057431 6.116222 -1.528867 -12.201509 2.243543 -5.25504 -3.180159 14.282893 -0.826596 6.952501 -1e-06 -12.690612 -0.0 16.438135 -18.005682 2.346148 1.665667 -1.955923 -2.878301 4.7278 -4.17059 4.993925 11.020528 1e-06 -3e-06 12.109056 -3.735719 -2.866787 -0.0 0.0 -0.0 1.291986 -1.92855 -1.498089 14.800132 0.567468 3.865606 14.242577 -1.341738 -6.660661 19.631973 0.143926 -0.648247 49.578976 -0.399872 -6.487155 0.353029 -1.511152 -0.031939 20.222797 3.68431 2.316628 18.787279 5e-06 -4e-06 10.751631 -0.479869 1.397905 -1e-06 -0.0 1e-06 3.273808 0.305946 -0.58011 21.486816 11.830381 2.266132 8.16293 2e-06 -1e-06 18.39909 -3.798988 -4.940581 2e-06 1e-06 -1e-06 -3.939028 7.18197 -29.858616 0.139604 0.091888 22.380898 1.370258 5.503597 2.740523 1.633149 -1.910134 -2.03611 0.0 -0.0 2e-06 -10.498493 -13.309235 6.436391 -0.010843 0.87632 40.493156 7.091157 -8.83744 10.55278 -1.595173 0.863845 -14.216258 0.0 -1e-06 -3e-06 
0.0 0.0 0.0 0.0 -0.0 0.0 3.166576 97.855896 9.947252 1.529845 0.421703 4.004125 -0.815881 0.084946 0.119862 -0.517758 1.557465 -4.609769 -1.601321 -0.739953 10.638678 -1.344698 3.108419 -0.473514 -0.907767 0.214029 -3.705639 0.050928 -0.203616 -7.039489 7.7e-05 -2.2e-05 6e-06 0.037887 0.026759 -0.028245 0.7597 -3.702312 -10.648767 -0.69799 3.760067 -10.678427 -22.164593 -2.791095 15.796645 -48.841305 -7.584686 6.82489 -0.592109 -31.087204 0.158636 -3.604237 6.294684 -21.37109 -5.882113 9.861295 0.70259 -10.936884 -0.360577 7.15621 1e-06 8.774834 -2e-06 -16.331684 18.180384 5.997274 -1.844035 2.498507 -2.507279 -10.163611 4.678948 4.62111 -20.976053 -6e-06 1e-06 -21.226313 2.451697 -3.594004 1e-06 -6e-06 -0.0 -1.362683 2.240801 -0.746324 -21.334938 0.584908 3.008323 -13.821231 -4e-06 1e-06 -23.887203 -0.249083 -0.839484 -60.664513 2.124096 -1.209143 -0.294025 1.679689 0.833256 -14.218225 0.093213 1.30058 -34.21209 -0.28757 0.96717 -20.033232 0.964534 1.212844 0.0 0.0 -1e-06 -3.440392 0.788234 0.501656 -15.928203 -3.167315 2.999708 -6.338833 -2e-06 0.0 -18.123466 3.648183 -4.905676 -4e-06 -0.0 -2e-06 14.086119 8.693919 16.347208 58.362156 1.662774 14.726219 -0.288772 36.915073 0.017813 5.977191 -1.975966 -11.863826 2.243544 -5.255042 -3.18016 14.282911 -0.826595 6.95251 -4e-06 -12.690618 1e-06 16.44799 -17.945732 2.376921 1.665669 -1.955923 -2.878301 4.727805 -4.170591 4.993928 11.020542 4e-06 -1e-06 12.109068 -3.735717 -2.866786 -0.0 -0.0 -0.0 1.291987 -1.928551 -1.498092 14.800151 0.56747 3.865611 14.242592 -1.341736 -6.660661 19.631992 0.143929 -0.648245 49.574314 -0.467805 -6.403452 0.353029 -1.511151 -0.03194 20.222818 3.684315 2.316633 18.787296 7e-06 -0.0 10.751642 -0.479866 1.397908 -1e-06 1e-06 -0.0 3.273811 0.305947 -0.580111 21.486847 11.83039 2.266134 8.16294 3e-06 -0.0 18.399107 -3.798986 -4.94058 2e-06 0.0 -1e-06 -4.115679 8.081114 -26.431961 0.082829 0.0855 21.733585 1.037764 4.438688 0.23793 1.634481 -1.935503 -1.723326 0.0 -0.0 2e-06 -9.898812 -13.378006 0.663857 0.034533 0.670326 50.828735 4.902765 -9.377502 11.817303 -1.584342 0.954876 -5.707173 -0.0 0.0 -0.0 
0.0 0.0 0.0 0.0 -0.0 0.0 3.884458 98.514 13.580704 1.40777 0.908538 3.711362 -0.999862 -0.08946 0.33332 -0.498865 1.142596 -4.58755 -1.425257 -1.060218 10.637779 -1.080499 3.016755 -0.345078 -0.785188 0.296583 -3.714284 0.041172 -0.199526 -7.237417 7.7e-05 -2.3e-05 6e-06 0.036391 0.035146 -0.016889 0.777115 -3.692445 -10.671957 -0.717903 3.766956 -10.695639 -21.655176 -3.324074 15.856725 -47.745926 -8.28819 7.989264 -0.595074 -32.12886 0.148218 -3.696688 6.241316 -21.888332 -5.882113 9.861293 0.702591 -10.936884 -0.360574 7.156212 1e-06 8.774831 0.0 -16.373163 18.218584 5.972395 -1.844035 2.498507 -2.507279 -10.163612 4.678949 4.621113 -20.976049 -3e-06 2e-06 -21.226315 2.451699 -3.594003 -0.0 -6e-06 -1e-06 -1.362683 2.2408 -0.746324 -21.334938 0.584911 3.008325 -13.821231 -2e-06 2e-06 -23.887201 -0.249079 -0.839483 -60.659485 2.147023 -1.172571 -0.294025 1.679689 0.833257 -14.218224 0.093216 1.300581 -34.212086 -0.287563 0.96717 -20.033239 0.964538 1.212843 0.0 0.0 -0.0 -3.440392 0.788234 0.501656 -15.928205 -3.167311 2.99971 -6.338833 -1e-06 1e-06 -18.123468 3.648185 -4.905675 -4e-06 0.0 -2e-06 14.101721 8.400043 16.250759 58.217255 1.425147 14.382583 -0.218245 37.808437 0.012066 5.655534 -2.261811 -12.116467 2.243543 -5.255039 -3.180159 14.2829 -0.826595 6.952506 -2e-06 -12.690613 2e-06 16.422783 -17.937138 2.432462 1.665668 -1.955923 -2.8783 4.727801 -4.17059 4.993926 11.020535 4e-06 -3e-06 12.109061 -3.735717 -2.866786 -0.0 -0.0 -0.0 1.291987 -1.92855 -1.49809 14.800139 0.567469 3.865609 14.242584 -1.341736 -6.660661 19.631985 0.143928 -0.648246 49.688545 -0.525648 -6.350642 0.353029 -1.511152 -0.031942 20.222805 3.684313 2.31663 18.787289 6e-06 -3e-06 10.751637 -0.479868 1.397906 -1e-06 1e-06 -1e-06 3.273809 0.305947 -0.580112 21.486832 11.830384 2.266133 8.162936 3e-06 -1e-06 18.399096 -3.798985 -4.94058 4e-06 1e-06 -1e-06 -4.214102 8.791049 -23.023483 0.060354 0.070229 20.566708 0.555423 3.247124 -1.773821 1.625311 -1.904649 -1.528375 -0.0 -0.0 2e-06 -8.878981 -13.502251 -5.16939 0.047771 0.345194 58.631763 3.584076 -9.706573 9.089441 -1.627811 0.996364 -4.192781 -0.0 0.0 -1e-06 
